<?xml version="1.0" encoding="UTF-8"?>
<svg id="Layer_1" data-name="Layer 1" xmlns="http://www.w3.org/2000/svg" viewBox="0 0 500 500">
  <defs>
    <style>
      .cls-1 {
        fill: #c7002b;
      }
    </style>
  </defs>
  <g id="layer1">
    <path id="path3961" d="m26.63,328.63v-18.97h13v3.21h-9.46v4.21h8.81v3.2h-8.81v5.16h9.8v3.2h-13.34Z"/>
    <path id="path3963" d="m54.53,328.63h-3.36v-7.01c0-1.48-.07-2.44-.22-2.88-.14-.44-.38-.77-.7-1.02-.32-.24-.71-.36-1.17-.36-.58,0-1.1.17-1.57.52-.46.35-.78.8-.95,1.37-.17.57-.26,1.62-.26,3.16v6.23h-3.36v-13.75h3.12v2.02c1.11-1.55,2.5-2.33,4.19-2.33.74,0,1.42.14,2.03.43.61.29,1.08.66,1.39,1.11.32.45.53.96.66,1.53.12.57.19,1.38.19,2.45v8.54Z"/>
    <path id="path3965" d="m57.64,329.54l3.84.5c.06.48.21.82.44,1,.32.26.82.39,1.51.39.88,0,1.54-.14,1.97-.43.3-.19.52-.5.67-.92.1-.3.16-.86.16-1.67v-2.01c-1,1.48-2.27,2.23-3.8,2.23-1.71,0-3.06-.78-4.06-2.34-.78-1.23-1.17-2.77-1.17-4.61,0-2.3.51-4.06,1.54-5.28,1.02-1.22,2.3-1.82,3.82-1.82,1.57,0,2.87.75,3.89,2.24v-1.93h3.15v12.33c0,1.62-.12,2.83-.37,3.64-.25.8-.59,1.43-1.04,1.89-.45.46-1.04.82-1.79,1.07-.75.26-1.69.39-2.83.39-2.15,0-3.68-.4-4.58-1.2-.9-.8-1.35-1.81-1.35-3.04,0-.12,0-.27.01-.44h0Zm3-8.06c0,1.46.26,2.53.78,3.2.52.68,1.17,1.02,1.93,1.02.82,0,1.52-.35,2.08-1.04.57-.69.85-1.72.85-3.09,0-1.42-.27-2.48-.81-3.17-.54-.69-1.23-1.04-2.06-1.04-.81,0-1.47.34-1.99,1.02-.52.68-.78,1.71-.78,3.1Z"/>
    <path id="path3967" d="m72.93,328.63v-18.97h3.36v18.97h-3.36Z"/>
    <path id="path3969" d="m79.73,313.02v-3.37h3.36v3.37h-3.36Zm0,15.61v-13.75h3.36v13.75h-3.36Z"/>
    <path id="path3971" d="m85.34,324.71l3.37-.56c.14.71.43,1.24.87,1.61.44.37,1.05.55,1.84.55.87,0,1.52-.17,1.96-.52.3-.24.44-.57.44-.97,0-.28-.08-.5-.24-.69-.17-.17-.54-.33-1.12-.48-2.71-.65-4.43-1.24-5.16-1.77-1-.74-1.51-1.77-1.51-3.09,0-1.19.43-2.19,1.3-3,.87-.81,2.22-1.22,4.04-1.22,1.74,0,3.03.31,3.88.92.85.61,1.43,1.52,1.75,2.72l-3.17.63c-.14-.53-.39-.94-.77-1.23-.38-.28-.92-.43-1.62-.43-.89,0-1.52.13-1.9.4-.26.19-.38.44-.38.74,0,.26.11.48.33.66.3.24,1.35.58,3.14,1.02,1.79.44,3.04.98,3.75,1.62.7.65,1.05,1.55,1.05,2.71,0,1.26-.49,2.34-1.46,3.25-.97.91-2.41,1.36-4.32,1.36-1.73,0-3.1-.38-4.11-1.14-1.01-.76-1.67-1.79-1.98-3.09h0Z"/>
    <path id="path3973" d="m103.51,309.66v6.98c1.08-1.37,2.38-2.06,3.89-2.06.77,0,1.47.16,2.09.47.62.31,1.09.71,1.41,1.19.32.48.53,1.02.65,1.6.12.59.17,1.5.17,2.73v8.06h-3.36v-7.26c0-1.44-.06-2.36-.19-2.74-.13-.39-.35-.7-.68-.93-.32-.23-.73-.34-1.21-.34-.56,0-1.06.15-1.5.44-.44.29-.76.74-.96,1.33-.2.59-.31,1.46-.31,2.62v6.89h-3.36v-18.97h3.36Z"/>
    <path id="path3975" d="m120.46,314.89h1.87v-1.04c0-1.16.11-2.02.34-2.59.23-.57.65-1.03,1.26-1.39.61-.36,1.38-.54,2.31-.54.96,0,1.89.16,2.81.47l-.45,2.54c-.53-.14-1.05-.21-1.54-.21-.49,0-.84.12-1.05.37-.21.25-.32.72-.32,1.42v.97h2.51v2.86h-2.51v10.88h-3.36v-10.88h-1.87v-2.86Z"/>
    <path id="path3977" d="m129.34,321.56c0-1.21.28-2.38.83-3.51.55-1.13,1.33-1.99,2.34-2.59,1.01-.6,2.14-.89,3.38-.89,1.92,0,3.5.68,4.73,2.03,1.23,1.35,1.84,3.06,1.84,5.12,0,2.08-.62,3.8-1.86,5.17-1.24,1.37-2.8,2.05-4.68,2.05-1.16,0-2.28-.28-3.33-.85-1.06-.57-1.86-1.4-2.41-2.5-.55-1.1-.83-2.44-.83-4.02h0Zm3.45.19c0,1.36.3,2.41.9,3.13.6.72,1.34,1.09,2.21,1.09s1.61-.36,2.21-1.09c.59-.72.89-1.78.89-3.16,0-1.35-.3-2.38-.89-3.11-.59-.72-1.33-1.09-2.21-1.09-.88,0-1.62.36-2.21,1.09-.6.72-.9,1.77-.9,3.13Z"/>
    <path id="path3979" d="m148.32,328.63h-3.36v-13.75h3.12v1.95c.53-.92,1.01-1.53,1.44-1.82.43-.29.91-.44,1.45-.44.77,0,1.5.23,2.21.69l-1.04,3.17c-.57-.4-1.09-.6-1.58-.6-.47,0-.87.14-1.2.42-.33.28-.58.79-.77,1.52-.19.73-.28,2.27-.28,4.61v4.25Z"/>
    <path id="path3981" d="m161.33,328.63v-18.97h3.54v18.97h-3.54Z"/>
    <path id="path3983" d="m179.77,328.63h-3.36v-7.01c0-1.48-.07-2.44-.22-2.88-.14-.44-.38-.77-.7-1.02-.32-.24-.71-.36-1.17-.36-.58,0-1.1.17-1.57.52-.46.35-.78.8-.95,1.37-.17.57-.26,1.62-.26,3.16v6.23h-3.36v-13.75h3.12v2.02c1.11-1.55,2.5-2.33,4.19-2.33.74,0,1.42.14,2.03.43.61.29,1.08.66,1.39,1.11.32.45.53.96.66,1.53.12.57.19,1.38.19,2.45v8.54Z"/>
    <path id="path3985" d="m189.01,314.89v2.9h-2.3v5.54c0,1.12.02,1.78.07,1.96.04.19.14.34.3.46.16.12.34.18.57.18.31,0,.76-.12,1.35-.35l.29,2.82c-.78.36-1.67.54-2.66.54-.61,0-1.15-.11-1.64-.33-.49-.22-.84-.5-1.07-.85-.23-.35-.38-.82-.47-1.42-.07-.42-.11-1.28-.11-2.56v-5.99h-1.54v-2.9h1.54v-2.73l3.37-2.12v4.85h2.3Z"/>
    <path id="path3987" d="m198.73,324.26l3.35.61c-.43,1.33-1.11,2.34-2.04,3.04-.93.69-2.09,1.04-3.49,1.04-2.21,0-3.84-.78-4.91-2.34-.84-1.25-1.26-2.83-1.26-4.74,0-2.28.55-4.06,1.65-5.35s2.49-1.93,4.18-1.93c1.89,0,3.38.68,4.47,2.03,1.09,1.35,1.62,3.42,1.57,6.21h-8.42c.02,1.08.3,1.92.81,2.52.52.6,1.16.9,1.94.9.53,0,.97-.16,1.33-.47.36-.31.63-.81.81-1.5Zm.19-3.68c-.02-1.05-.28-1.85-.75-2.4-.48-.55-1.06-.82-1.75-.82-.73,0-1.34.29-1.82.87-.48.58-.71,1.36-.71,2.36h5.02Z"/>
    <path id="path3989" d="m208.23,328.63h-3.36v-13.75h3.12v1.95c.53-.92,1.01-1.53,1.44-1.82.43-.29.91-.44,1.45-.44.77,0,1.5.23,2.21.69l-1.04,3.17c-.57-.4-1.09-.6-1.58-.6-.47,0-.87.14-1.2.42-.33.28-.58.79-.77,1.52-.19.73-.28,2.27-.28,4.61v4.25Z"/>
    <path id="path3991" d="m226.09,328.63h-3.36v-7.01c0-1.48-.07-2.44-.22-2.88-.14-.44-.38-.77-.7-1.02-.32-.24-.71-.36-1.17-.36-.58,0-1.1.17-1.57.52-.46.35-.78.8-.95,1.37-.17.57-.26,1.62-.26,3.16v6.23h-3.36v-13.75h3.12v2.02c1.11-1.55,2.5-2.33,4.19-2.33.74,0,1.42.14,2.03.43.61.29,1.08.66,1.39,1.11.32.45.53.96.66,1.53.12.57.19,1.38.19,2.45v8.54Z"/>
    <path id="path3993" d="m232.02,319.08l-3.05-.6c.34-1.33.93-2.31,1.77-2.95.84-.64,2.08-.96,3.73-.96,1.5,0,2.62.19,3.35.58.73.38,1.25.87,1.55,1.46.3.59.45,1.68.45,3.26l-.04,4.25c0,1.21.05,2.1.16,2.67.11.57.31,1.19.6,1.84h-3.33c-.09-.24-.2-.6-.32-1.07-.06-.22-.1-.36-.12-.43-.57.6-1.19,1.06-1.84,1.36-.65.3-1.35.45-2.09.45-1.31,0-2.34-.38-3.09-1.15-.75-.77-1.13-1.74-1.13-2.91,0-.78.17-1.47.51-2.08.34-.61.82-1.07,1.44-1.4.62-.32,1.51-.61,2.67-.85,1.57-.32,2.66-.62,3.27-.89v-.36c0-.7-.16-1.2-.48-1.49-.32-.3-.92-.45-1.81-.45-.6,0-1.06.13-1.4.38-.33.25-.61.7-.81,1.34h0Zm4.5,2.95c-.43.16-1.11.34-2.05.56-.93.22-1.54.43-1.83.63-.44.34-.66.76-.66,1.28s.18.95.53,1.32c.35.37.8.56,1.34.56.61,0,1.18-.22,1.73-.65.41-.33.67-.73.8-1.2.09-.31.13-.9.13-1.77v-.72Z"/>
    <path id="path3995" d="m248.98,314.89v2.9h-2.3v5.54c0,1.12.02,1.78.07,1.96.04.19.14.34.3.46.16.12.34.18.57.18.31,0,.76-.12,1.35-.35l.29,2.82c-.78.36-1.67.54-2.66.54-.61,0-1.15-.11-1.64-.33-.49-.22-.84-.5-1.07-.85-.23-.35-.38-.82-.47-1.42-.07-.42-.11-1.28-.11-2.56v-5.99h-1.54v-2.9h1.54v-2.73l3.37-2.12v4.85h2.3Z"/>
    <path id="path3997" d="m251.33,313.02v-3.37h3.36v3.37h-3.36Zm0,15.61v-13.75h3.36v13.75h-3.36Z"/>
    <path id="path3999" d="m257.35,321.56c0-1.21.28-2.38.83-3.51.55-1.13,1.33-1.99,2.34-2.59,1.01-.6,2.14-.89,3.38-.89,1.92,0,3.5.68,4.73,2.03,1.23,1.35,1.84,3.06,1.84,5.12,0,2.08-.62,3.8-1.86,5.17-1.24,1.37-2.8,2.05-4.68,2.05-1.16,0-2.28-.28-3.33-.85-1.06-.57-1.86-1.4-2.41-2.5-.55-1.1-.83-2.44-.83-4.02h0Zm3.45.19c0,1.36.3,2.41.9,3.13s1.34,1.09,2.21,1.09,1.61-.36,2.21-1.09c.59-.72.89-1.78.89-3.16,0-1.35-.3-2.38-.89-3.11-.59-.72-1.33-1.09-2.21-1.09-.88,0-1.62.36-2.21,1.09-.6.72-.9,1.77-.9,3.13Z"/>
    <path id="path4001" d="m284.66,328.63h-3.36v-7.01c0-1.48-.07-2.44-.22-2.88-.14-.44-.38-.77-.7-1.02-.32-.24-.71-.36-1.17-.36-.58,0-1.1.17-1.57.52-.46.35-.78.8-.95,1.37-.17.57-.26,1.62-.26,3.16v6.23h-3.36v-13.75h3.12v2.02c1.11-1.55,2.5-2.33,4.19-2.33.74,0,1.42.14,2.03.43.61.29,1.08.66,1.39,1.11.32.45.53.96.66,1.53.12.57.19,1.38.19,2.45v8.54Z"/>
    <path id="path4003" d="m290.6,319.08l-3.05-.6c.34-1.33.93-2.31,1.77-2.95.84-.64,2.08-.96,3.73-.96,1.5,0,2.62.19,3.35.58.73.38,1.25.87,1.55,1.46.3.59.45,1.68.45,3.26l-.04,4.25c0,1.21.05,2.1.16,2.67.11.57.31,1.19.6,1.84h-3.33c-.09-.24-.2-.6-.32-1.07-.06-.22-.1-.36-.12-.43-.57.6-1.19,1.06-1.84,1.36-.65.3-1.35.45-2.09.45-1.31,0-2.34-.38-3.09-1.15-.75-.77-1.13-1.74-1.13-2.91,0-.78.17-1.47.51-2.08.34-.61.82-1.07,1.44-1.4.62-.32,1.51-.61,2.67-.85,1.57-.32,2.66-.62,3.27-.89v-.36c0-.7-.16-1.2-.48-1.49-.32-.3-.92-.45-1.81-.45-.6,0-1.06.13-1.4.38-.33.25-.61.7-.81,1.34h0Zm4.5,2.95c-.43.16-1.11.34-2.05.56-.93.22-1.54.43-1.83.63-.44.34-.66.76-.66,1.28s.18.95.53,1.32.8.56,1.34.56c.61,0,1.18-.22,1.73-.65.41-.33.67-.73.8-1.2.09-.31.13-.9.13-1.77v-.72Z"/>
    <path id="path4005" d="m301.72,328.63v-18.97h3.36v18.97h-3.36Z"/>
    <path id="path4007" d="m314.62,319.26c0-1.93.27-3.55.8-4.87.4-.97.94-1.83,1.63-2.6.69-.77,1.45-1.34,2.27-1.71,1.09-.5,2.35-.75,3.78-.75,2.58,0,4.65.87,6.2,2.6,1.55,1.73,2.33,4.15,2.33,7.23,0,3.06-.77,5.46-2.31,7.19-1.54,1.73-3.6,2.6-6.17,2.6s-4.68-.86-6.22-2.58-2.31-4.09-2.31-7.11h0Zm3.65-.13c0,2.15.46,3.78,1.38,4.89.92,1.11,2.08,1.66,3.49,1.66s2.57-.55,3.48-1.65c.91-1.1,1.36-2.75,1.36-4.95,0-2.17-.44-3.8-1.32-4.87-.88-1.07-2.05-1.6-3.51-1.6-1.46,0-2.64.54-3.53,1.62-.89,1.08-1.34,2.72-1.34,4.9Z"/>
    <path id="path4009" d="m334.26,314.89h3.13v2.02c.41-.69.96-1.25,1.65-1.68.69-.43,1.46-.65,2.31-.65,1.48,0,2.73.63,3.76,1.88,1.03,1.25,1.54,2.99,1.54,5.23,0,2.3-.52,4.08-1.56,5.35-1.04,1.27-2.29,1.91-3.77,1.91-.7,0-1.34-.15-1.91-.45-.57-.3-1.17-.82-1.8-1.55v6.92h-3.36v-18.97Zm3.33,6.64c0,1.54.28,2.69.85,3.42.57.74,1.26,1.11,2.07,1.11s1.43-.34,1.95-1.02c.52-.68.78-1.79.78-3.33,0-1.44-.27-2.51-.8-3.21-.53-.7-1.2-1.05-1.99-1.05-.82,0-1.5.34-2.05,1.03-.54.69-.81,1.7-.81,3.05Z"/>
    <path id="path4011" d="m349.24,314.89h3.13v2.02c.41-.69.96-1.25,1.65-1.68.69-.43,1.46-.65,2.31-.65,1.48,0,2.73.63,3.76,1.88,1.03,1.25,1.54,2.99,1.54,5.23,0,2.3-.52,4.08-1.56,5.35-1.04,1.27-2.29,1.91-3.77,1.91-.7,0-1.34-.15-1.91-.45-.57-.3-1.17-.82-1.8-1.55v6.92h-3.36v-18.97Zm3.33,6.64c0,1.54.28,2.69.85,3.42.57.74,1.26,1.11,2.07,1.11s1.43-.34,1.95-1.02c.52-.68.78-1.79.78-3.33,0-1.44-.27-2.51-.8-3.21-.53-.7-1.2-1.05-1.99-1.05-.82,0-1.5.34-2.05,1.03-.54.69-.81,1.7-.81,3.05h0Z"/>
    <path id="path4013" d="m363.54,321.56c0-1.21.28-2.38.83-3.51.55-1.13,1.33-1.99,2.34-2.59,1.01-.6,2.14-.89,3.38-.89,1.92,0,3.5.68,4.73,2.03,1.23,1.35,1.84,3.06,1.84,5.12,0,2.08-.62,3.8-1.86,5.17-1.24,1.37-2.8,2.05-4.68,2.05-1.16,0-2.28-.28-3.33-.85-1.06-.57-1.86-1.4-2.41-2.5-.55-1.1-.83-2.44-.83-4.02h0Zm3.45.19c0,1.36.3,2.41.9,3.13s1.34,1.09,2.21,1.09,1.61-.36,2.21-1.09c.59-.72.89-1.78.89-3.16s-.3-2.38-.89-3.11c-.59-.72-1.33-1.09-2.21-1.09-.88,0-1.62.36-2.21,1.09-.6.72-.9,1.77-.9,3.13Z"/>
    <path id="path4015" d="m382.51,328.63h-3.36v-13.75h3.12v1.95c.53-.92,1.01-1.53,1.44-1.82.43-.29.91-.44,1.45-.44.77,0,1.5.23,2.21.69l-1.04,3.17c-.57-.4-1.09-.6-1.58-.6-.47,0-.87.14-1.2.42-.33.28-.58.79-.77,1.52-.19.73-.28,2.27-.28,4.61v4.25Z"/>
    <path id="path4017" d="m394.64,314.89v2.9h-2.3v5.54c0,1.12.02,1.78.07,1.96.04.19.14.34.3.46.16.12.34.18.57.18.31,0,.76-.12,1.35-.35l.29,2.82c-.78.36-1.67.54-2.66.54-.61,0-1.15-.11-1.64-.33-.49-.22-.84-.5-1.07-.85-.23-.35-.38-.82-.47-1.42-.07-.42-.11-1.28-.11-2.56v-5.99h-1.54v-2.9h1.54v-2.73l3.37-2.12v4.85h2.3Z"/>
    <path id="path4019" d="m405.36,328.63v-2.06c-.46.73-1.07,1.31-1.82,1.73-.75.42-1.55.63-2.39.63s-1.62-.2-2.3-.61c-.68-.41-1.17-.98-1.47-1.71-.3-.73-.45-1.75-.45-3.04v-8.7h3.36v6.32c0,1.93.06,3.12.19,3.55.12.44.35.78.68,1.04s.74.38,1.24.38c.57,0,1.09-.17,1.54-.51.45-.34.77-.76.93-1.27s.25-1.74.25-3.71v-5.8h3.36v13.75h-3.12Z"/>
    <path id="path4021" d="m423.54,328.63h-3.36v-7.01c0-1.48-.07-2.44-.22-2.88-.14-.44-.38-.77-.7-1.02-.32-.24-.71-.36-1.17-.36-.58,0-1.1.17-1.57.52-.46.35-.78.8-.95,1.37-.17.57-.26,1.62-.26,3.16v6.23h-3.36v-13.75h3.12v2.02c1.11-1.55,2.5-2.33,4.19-2.33.74,0,1.42.14,2.03.43.61.29,1.08.66,1.39,1.11.32.45.53.96.66,1.53.12.57.19,1.38.19,2.45v8.54Z"/>
    <path id="path4023" d="m426.96,313.02v-3.37h3.36v3.37h-3.36Zm0,15.61v-13.75h3.36v13.75h-3.36Z"/>
    <path id="path4025" d="m439.58,314.89v2.9h-2.3v5.54c0,1.12.02,1.78.07,1.96.04.19.14.34.3.46.16.12.34.18.57.18.31,0,.76-.12,1.35-.35l.29,2.82c-.78.36-1.67.54-2.66.54-.61,0-1.15-.11-1.64-.33-.49-.22-.84-.5-1.07-.85-.23-.35-.38-.82-.47-1.42-.07-.42-.11-1.28-.11-2.56v-5.99h-1.54v-2.9h1.54v-2.73l3.37-2.12v4.85h2.3Z"/>
    <path id="path4027" d="m440.34,314.89h3.58l3.04,9.76,2.97-9.76h3.48l-4.49,13.23-.8,2.39c-.3.8-.58,1.42-.84,1.84s-.57.77-.92,1.03-.77.47-1.28.61-1.08.22-1.72.22-1.28-.07-1.9-.22l-.3-2.85c.53.11,1,.17,1.42.17.78,0,1.36-.25,1.73-.74.37-.5.66-1.13.86-1.9l-4.83-13.78Z"/>
    <path id="path3916" class="cls-1" d="m407.58,297.37c-22,.15-29.46-2.97-38.96-10.36-9.5-7.39-13.91-19.18-14.71-34.19h30.05c1.33,15.45,9.9,21.45,24.27,21.37,11.17-.03,21.2-2.68,20.02-13.91-.78-11.69-18.52-9.77-41.55-19.52-16.14-4.8-31.59-17.61-30.25-37.61,2.03-27.18,26.47-37.25,49.4-37.35,27.37-.02,48.27,13.39,48.64,41.44l-29.58-.41c-.13-16.54-18.44-16.6-20.71-16.63-11.9-.39-17.78,6.05-17.5,11.2.12,9.8,12.15,12.45,23.92,16.22,22.12,7.02,48.07,11.21,48.21,40.83-.23,11.8-3.48,20.52-13.35,28.43-7.62,5.96-20.57,10.42-37.91,10.5h0Z"/>
    <path id="path3952" class="cls-1" d="m26.18,171.15h32.06v124.27H26.18v-124.27Z"/>
    <path id="path3954" class="cls-1" d="m71.81,171.15h95.78v25.29h-64.63v23.28h64.63v24.66h-64.63v25.49h64.63v25.54h-95.78v-124.27Z"/>
    <path id="path3956" class="cls-1" d="m179.93,171.15h31.65v97.57h58.37v26.7h-90.03v-124.27Z"/>
    <path id="path3958" class="cls-1" d="m246.7,171.15h103.19v25.29h-35.75v98.98h-31.54v-98.98h-35.9v-25.29Z"/>
    <path id="path4576" d="m451.39,185.6v-12.32h-4.18v-2.51h11.19v2.51h-4.17v12.32h-2.84Z"/>
    <path id="path4578" d="m460.21,185.6v-14.83h4.26l2.56,10.12,2.53-10.12h4.27v14.83h-2.64v-11.68l-2.8,11.68h-2.74l-2.79-11.68v11.68h-2.64Z"/>
  </g>
</svg>