<?xml version="1.0" encoding="UTF-8"?>
<svg id="Layer_1" data-name="Layer 1" xmlns="http://www.w3.org/2000/svg" viewBox="0 0 500 500">
  <defs>
    <style>
      .cls-1 {
        fill: #468145;
      }
    </style>
  </defs>
  <path d="m60.69,173.93v132.84c0,.29-.12.57-.33.78l-18.9,18.25c-.29.28-.78.07-.78-.33v-151.54c0-.25.21-.46.46-.46h19.09c.25,0,.46.21.46.46Zm51.51,38.11c0-13.12,10.76-21.08,25.17-21.08,12.48,0,21.73,5.16,31.63,14.41,1.51,1.5,1.99,2.33,3.5.61l8.94-9.65c1.51-1.72.69-2.15-.82-3.65-10.76-12.47-26.68-20.22-43.46-20.22-24.74,0-44.32,16.13-44.32,39.36,0,48.6,74.88,38.49,74.88,72.26,0,13.76-12.05,24.52-29.91,24.52s-26.23-7.91-35.7-16.94c-1.51-1.51-1.83-1.86-3.12-.57l-10.22,9.65c-1.51,1.29-1.36,1.4-.28,3.12,9.79,13.19,28.02,23.45,49.32,23.45,26.68,0,49.7-17.63,49.7-42.36,0-51.18-75.31-39.78-75.31-72.9h0Zm175.36-20c15.28,0,27.76,5.81,38.3,14.62.25.21,1.09.89,1.35,1.11,1.03.87,1.23.91,2.47-.37.3-.31,1.19-1.26,1.19-1.26l9.03-9.87c.97-1.13.81-1.22.11-1.95-.29-.3-.79-.77-1.23-1.2-13.55-12.04-30.98-20.64-51.21-20.64-42.82,0-76.17,34.41-76.17,77.63s33.35,77.42,76.17,77.42c20.23,0,37.69-9.13,51.25-21.39,1.51-1.29,2.07-1.76.57-3.26l-9.21-10.07c-1.51-1.51-1.9-1.15-3.41.14-10.54,8.82-23.93,15.01-39.2,15.01-30.77,0-55.73-24.94-55.73-57.85s24.96-58.06,55.73-58.06Zm122.97-19.26c-19.36,0-34.72,8.54-44.18,20.37-.26.3-.83,1.14-1.01,1.4-.69,1.08-.49,1.16.49,2.25,2.44,2.72,10.03,11.31,10.03,11.31.32.34.62.35.89.11.3-.27.96-.89,1.32-1.24,6.02-6.24,16.33-16.56,32.25-16.56,17.86,0,28.62,11.18,28.62,27.53,0,23.19-13.3,34.22-42.9,59.11-8.61,7.24-24.51,21.18-28.48,24.67-.58.51-.92,1.25-.92,2.03v20.84c0,.93,1.09,1.43,1.79.81,8.17-7.16,41.95-36.75,52.92-46.07,28.42-24.13,36.08-40.52,36.08-61.6,0-25.59-18.5-44.95-46.91-44.95h0Z"/>
  <path class="cls-1" d="m458.21,308.7h-47.74c-.61,0-1.11.49-1.11,1.11v14.13c0,.61.5,1.11,1.11,1.11h47.74c.61,0,1.11-.5,1.11-1.11v-14.13c0-.61-.5-1.11-1.11-1.11Z"/>
</svg>