<?xml version="1.0" encoding="utf-8"?>
<!-- Generator: Adobe Illustrator 26.0.1, SVG Export Plug-In . SVG Version: 6.00 Build 0)  -->
<svg version="1.1" id="Layer_1" xmlns="http://www.w3.org/2000/svg" xmlns:xlink="http://www.w3.org/1999/xlink" x="0px" y="0px"
	 viewBox="0 0 500 500" style="enable-background:new 0 0 500 500;" xml:space="preserve">
<style type="text/css">
	.st0{fill:#0C1534;}
</style>
<g>
	<path class="st0" d="M412.1,370.3c-11.6-1-22.6-1.9-33.5-2.9c-5.3-0.5-10.6-1.3-15.9-1.5c-2.3-0.1-4.8,0.8-6.9,1.9
		c-5.2,2.6-10.1,5.9-15.4,8.2c-8.6,3.7-16.9,2.6-24.6-2.9c-4.3-3.1-8.9-5.9-13.3-8.8c-8.6-5.5-17-5.1-25.1,1c-8,6-16,12-23.5,18.6
		c-3.4,3-5.2,2.7-8.6-0.1c-8.6-7.1-17.5-13.8-26.5-20.3c-5.9-4.3-12.6-4.3-18.9-0.7c-5.4,3-10.7,6.1-15.7,9.7
		c-8.3,6.1-17.1,7.1-26.4,3c-4.1-1.8-8.5-3.5-11.9-6.3c-4.4-3.7-8.9-3.6-14-3.1c-14.4,1.5-28.8,2.7-44.3,4c1-5.6,1.9-10.6,2.8-15.5
		c1.6-7.8,3-15.7,4.9-23.5c1.2-4.9-0.2-8.3-4.1-11.2c-9.7-7.3-19.3-14.8-28.9-22.3c-1.3-1-2.5-2.1-4.3-3.6
		c7.1-6.5,13.9-12.9,20.8-19.1c11.8-10.5,11.9-11.1,0.7-22.2c-6.7-6.6-13.7-13-21.5-20.4c9.1-3.9,16.5-7,24-10.2
		c7.2-3.1,14.3-6.3,21.5-9.4c5.7-2.5,6.8-4.5,6-11c-1.2-10.2-2.3-20.5-3.4-30.8c-0.1-1.3,0-2.6,0-4.9c6.1,0.5,11.9,0.8,17.8,1.4
		c7.8,0.7,15.6,1.7,23.3,2.4c4.8,0.4,7.3-2.2,8.6-6.6c3.6-12.1,7.4-24.2,11.1-36.3c0.4-1.4,1-2.8,1.7-4.9c1.8,1,3.3,1.7,4.8,2.6
		c12,7.2,23.9,14.6,35.9,21.8c6,3.6,8.5,3.1,12.8-2.3c8.9-11.2,17.8-22.4,27.1-34.3c3.1,3.8,6,7.2,8.7,10.7
		c6.2,7.8,12.4,15.7,18.5,23.6c4.2,5.4,6.8,5.9,12.8,2.3c11.9-7.1,23.6-14.4,35.5-21.5c1.4-0.9,2.8-1.7,4.8-2.8
		c2.1,5.1,4.1,9.8,6,14.6c2.8,7.1,5.8,14.2,8.4,21.4c1.7,4.8,4.8,6.8,9.7,7c9.2,0.3,18.3,0.8,27.5,1.2c3.8,0.2,7.6,0.5,12,0.8
		c-0.9,9-1.8,17.6-2.7,26.1c-2,18.7-3.7,15.7,13,23.1c10.5,4.7,21.1,9.1,31.7,13.7c1.5,0.6,2.9,1.4,5.7,2.8
		c-8.8,8.4-16.9,16-24.8,23.8c-6.4,6.3-6.2,9.1,0.5,15.2c8.1,7.4,16.2,14.7,24.8,22.5c-5.8,4.5-11.1,8.8-16.4,12.9
		c-5.7,4.4-11.3,8.9-17.1,13c-4.1,2.9-5.1,6.3-4.1,11.2C407,343.9,409.4,356.6,412.1,370.3z M415.5,238.6c-0.3-0.6-0.6-1.3-0.9-1.9
		c-1.5-0.7-2.9-1.4-4.4-2.1c-7.5-3.3-15-6.4-22.4-9.8c-8.6-4-12.8-10.9-12.4-20.4c0.1-2.8,0.5-5.6,0.8-8.5c0.5-4.9,0.9-9.8,1.4-15.2
		c-8.5-0.6-16.3-1.4-24-1.5c-12-0.1-19.2-6-23-17c-2.2-6.2-4.8-12.3-7.4-19c-2.3,1.3-3.9,2.1-5.5,3c-7.3,4.4-14.4,9-21.9,13.1
		c-3.1,1.7-6.7,3.1-10.2,3.5c-7.9,0.9-14.2-2.5-19.1-8.8c-5.4-6.9-10.9-13.7-16.7-21c-1.6,1.9-2.7,3.1-3.7,4.4
		c-4.6,5.7-9.1,11.5-13.7,17.2c-7.4,9-18.1,10.9-28.2,5c-6.8-4-13.4-8.1-20.1-12.2c-2.1-1.3-4.2-2.4-6.7-3.8
		c-0.7,1.7-1.2,2.9-1.6,4.1c-2.4,7.5-4.6,15-7.1,22.4c-2.9,8.5-10.5,13.8-19.4,13.8c-3.5,0-7-0.5-10.5-0.8c-5.4-0.4-10.8-0.9-17-1.4
		c0.7,7.2,1.3,13.6,2,20c1.2,11-3,18.8-13.1,23.4c-7.3,3.3-14.7,6.3-22,9.5c-1.4,0.6-2.8,1.4-4.2,2.2c-0.3,0.6-0.7,1.3-1,1.9
		c3.1,2.5,6.5,4.7,9.3,7.6c13,13.2,12.6,23.7-1.1,36.1c-3.9,3.5-7.7,7.1-12,11.1c6.7,5.2,12.6,10,18.9,14.4
		c9.7,6.9,13.3,15.7,10.2,27.3c-1.6,6-2.4,12.2-3.8,19.5c8.8-0.9,16.4-1.6,24.7-2.4c-4.5-9-6.3-17.3-4.7-26.2
		c4.6-25.3,18.7-44.3,39.9-58c27.9-18,59.5-13.2,81.4,11.9c1.1,1.2,2.2,2.4,3.6,3.9c1.6-1.8,2.7-3.1,3.9-4.4
		c17.8-20.2,45.1-27.8,67.9-18.4c22.8,9.5,38.8,26,48.6,48.6c3.7,8.5,6,17.5,4.9,26.8c-0.6,5.2-2.5,10.2-4,15.8
		c7.5,0.7,15,1.4,23.3,2.2c-1.5-7.8-2.6-14.6-4-21.5c-2.2-10.1,0.8-17.9,9.1-24c6.7-4.9,13.1-10.1,20.2-15.6
		c-5.2-4.8-10-9.1-14.7-13.5c-9.6-9-10-21.5-0.9-31C407.5,245.1,411.6,242,415.5,238.6z M249.8,312.8c-2-3.8-3.5-7-5.3-9.9
		c-3-4.8-5.7-9.9-9.5-14c-13-14.1-29.3-21.6-48.1-15.6c-25.9,8.3-41.4,27.5-48.5,53.5c-2.1,7.8,0.3,15.2,5.4,21.5
		c5.4,6.8,12.1,11.9,20.2,15c4.3,1.6,8,1.1,11.7-1.6c4.3-3.2,8.6-6.3,13.2-9c13.4-7.8,26.9-8.7,39.9,0.5c6.7,4.7,13.2,7.3,21.8,7.2
		c6.4-0.1,11.3-1,16.2-4.8c3-2.3,6.5-4,9.9-5.8c8-4.1,16.4-4.7,24.7-1.2c6.2,2.7,12.3,5.9,18,9.7c10.9,7.3,13.6,7.7,24.6,0.5
		c3-2,5.9-4.4,8.5-7c8.3-8.2,11.1-18,7.5-29.3c-6.7-20.4-19.5-35.9-38.6-45.8c-5-2.6-10.9-4.5-16.6-4.9c-21.6-1.5-36.8,9.2-47.6,27
		C254.6,303.1,252.5,307.6,249.8,312.8z"/>
	<path class="st0" d="M293,390c-2.5,0-5.1,0.4-7.5-0.1c-2.7-0.6-7.1-1.8-7.4-3.3c-0.7-3.8-0.7-8.8,1.3-11.6c5-7.2,21.7-7.4,26.9-0.2
		c2.1,2.9,2.4,7.8,1.9,11.6c-0.6,4.1-4.9,3.7-8.2,3.7C297.7,390,295.3,390,293,390C293,390,293,390,293,390z"/>
	<path class="st0" d="M206.2,389.9c-2.3,0-4.6,0-7,0c-3.2,0-6.7,0.4-8.1-3.4c-1.4-4-1.6-8.2,1.4-11.8c5.8-6.9,22.4-7,27.4,0.4
		c1.9,2.9,2.1,7.6,1.5,11.2c-0.6,3.8-4.6,3.5-7.9,3.5C211.2,389.9,208.7,390,206.2,389.9z"/>
	<path class="st0" d="M223.3,312.6c-3.6,0-6.9,0.2-10.1-0.1c-1.2-0.1-2.7-1.1-3.4-2.1c-4.1-5.9-13.2-5.1-18.3,0
		c-2.4,2.4-8.1,1.4-12.3,2c-0.2-2.5-1.1-5.4-0.3-7.6c1-2.7,3.1-5.2,5.2-7.1c10-8.5,26.7-7.5,35.4,1.9
		C223,303.3,224.1,306.8,223.3,312.6z"/>
	<path class="st0" d="M313.8,313.8c-2.3-1.6-4.9-2.8-6.7-4.8c-4-4.3-14.1-3.8-17.2,1.2c-1.4,2.2-11.8,3.6-13.5,1.6
		c-0.6-0.7-1-2.4-0.6-3.2c1.8-3.7,3.1-7.9,5.9-10.6c9.3-9,26.9-8.1,35.8,1.4c1.1,1.2,2.1,2.6,2.9,4
		C323.7,310.4,322.3,312.7,313.8,313.8z"/>
</g>
</svg>
