<?xml version="1.0" encoding="utf-8"?>
<!-- Generator: Adobe Illustrator 27.3.1, SVG Export Plug-In . SVG Version: 6.00 Build 0)  -->
<svg version="1.1" id="Layer_1" xmlns="http://www.w3.org/2000/svg" xmlns:xlink="http://www.w3.org/1999/xlink" x="0px" y="0px"
	 viewBox="0 0 135 30" style="enable-background:new 0 0 135 30;" xml:space="preserve">
<style type="text/css">
	.st0{fill:#EDFFF7;}
</style>
<g>
	<path class="st0" d="M15.4,16.5l-8.8,3.7v-2.7l5.8-2.2l-0.1,0.1v-0.3l0.1,0.1L6.6,13v-2.7l8.8,3.7V16.5z"/>
	<path class="st0" d="M17.1,21.5L21.3,9h4l4.3,12.5h-3.3L24.5,16c-0.3-0.9-0.5-1.9-0.8-2.9c-0.3-1-0.5-2.1-0.8-3.2h0.7
		c-0.3,1.1-0.5,2.2-0.8,3.2c-0.2,1-0.5,2-0.8,2.9l-1.7,5.5H17.1z M19.9,18.9v-2.3h6.7v2.3H19.9z"/>
	<path class="st0" d="M36.3,21.6c-0.5,0-0.9-0.1-1.2-0.2c-0.3-0.2-0.6-0.3-0.9-0.6c-0.2-0.2-0.4-0.5-0.5-0.8h-0.1v1.5h-2.9V9h2.9
		v4.7h0.1c0.1-0.3,0.3-0.6,0.5-0.8c0.2-0.3,0.5-0.5,0.9-0.6c0.3-0.2,0.8-0.2,1.2-0.2c0.7,0,1.3,0.2,1.9,0.5c0.6,0.4,1,0.9,1.4,1.6
		c0.3,0.7,0.5,1.6,0.5,2.6c0,1-0.2,1.9-0.5,2.6c-0.3,0.7-0.8,1.2-1.3,1.6C37.7,21.4,37,21.6,36.3,21.6z M35.4,19.3
		c0.4,0,0.7-0.1,0.9-0.3c0.3-0.2,0.5-0.5,0.6-0.9c0.1-0.4,0.2-0.8,0.2-1.3s-0.1-0.9-0.2-1.3s-0.3-0.7-0.6-0.9s-0.6-0.3-0.9-0.3
		c-0.4,0-0.7,0.1-1,0.3c-0.3,0.2-0.5,0.5-0.6,0.9s-0.2,0.8-0.2,1.3c0,0.5,0.1,0.9,0.2,1.3c0.1,0.4,0.4,0.7,0.6,0.9
		C34.7,19.2,35,19.3,35.4,19.3z"/>
	<path class="st0" d="M45,21.6c-0.7,0-1.3-0.2-1.9-0.5c-0.6-0.4-1-0.9-1.4-1.6c-0.3-0.7-0.5-1.6-0.5-2.6c0-1.1,0.2-1.9,0.5-2.6
		c0.3-0.7,0.8-1.2,1.4-1.6c0.6-0.4,1.2-0.5,1.9-0.5c0.5,0,0.9,0.1,1.2,0.2c0.3,0.2,0.6,0.4,0.9,0.6s0.4,0.5,0.5,0.8h0.1V9h2.9v12.5
		h-2.9V20h-0.1c-0.1,0.3-0.3,0.6-0.5,0.8c-0.2,0.2-0.5,0.4-0.9,0.6C45.8,21.5,45.4,21.6,45,21.6z M45.9,19.3c0.4,0,0.7-0.1,0.9-0.3
		c0.3-0.2,0.5-0.5,0.6-0.9c0.1-0.4,0.2-0.8,0.2-1.3c0-0.5-0.1-0.9-0.2-1.3c-0.1-0.4-0.3-0.7-0.6-0.9c-0.3-0.2-0.6-0.3-0.9-0.3
		c-0.4,0-0.7,0.1-0.9,0.3s-0.5,0.5-0.6,0.9s-0.2,0.8-0.2,1.3s0.1,0.9,0.2,1.3c0.1,0.4,0.3,0.7,0.6,0.9
		C45.2,19.2,45.6,19.3,45.9,19.3z"/>
	<path class="st0" d="M53.8,11.2c-0.4,0-0.8-0.1-1.1-0.4c-0.3-0.3-0.4-0.6-0.4-1c0-0.4,0.1-0.7,0.4-1c0.3-0.3,0.7-0.4,1.1-0.4
		c0.4,0,0.8,0.1,1.1,0.4c0.3,0.3,0.4,0.6,0.4,1c0,0.4-0.1,0.7-0.4,1C54.6,11,54.3,11.2,53.8,11.2z M52.4,21.5v-9.2h2.9v9.2H52.4z"/>
	<path class="st0" d="M61.1,21.7c-0.8,0-1.5-0.1-2.1-0.3s-1.1-0.6-1.5-1c-0.4-0.4-0.6-0.9-0.7-1.6l2.7-0.3c0.1,0.4,0.3,0.7,0.6,0.9
		c0.3,0.2,0.6,0.3,1.1,0.3c0.4,0,0.7-0.1,0.9-0.2c0.2-0.1,0.3-0.3,0.3-0.6c0-0.2-0.1-0.4-0.3-0.5c-0.2-0.1-0.5-0.2-0.9-0.3l-1.6-0.3
		c-0.9-0.2-1.6-0.5-2.1-0.9c-0.5-0.4-0.7-1-0.7-1.7c0-0.6,0.2-1.1,0.5-1.6c0.3-0.4,0.8-0.8,1.4-1c0.6-0.2,1.3-0.4,2.2-0.4
		c0.8,0,1.5,0.1,2.1,0.3c0.6,0.2,1.1,0.5,1.4,0.9c0.3,0.4,0.6,0.9,0.7,1.4l-2.6,0.3c-0.1-0.3-0.2-0.6-0.5-0.7
		c-0.3-0.2-0.6-0.3-1-0.3c-0.4,0-0.7,0.1-0.9,0.2c-0.2,0.1-0.4,0.3-0.4,0.6c0,0.2,0.1,0.4,0.2,0.5c0.2,0.1,0.4,0.2,0.8,0.3l1.8,0.3
		c0.9,0.2,1.6,0.5,2.1,0.9c0.5,0.4,0.7,1,0.7,1.6c0,0.6-0.2,1.2-0.6,1.6S64,21,63.3,21.3C62.7,21.5,61.9,21.7,61.1,21.7z"/>
	<path class="st0" d="M69.5,21.6c-0.6,0-1.1-0.1-1.6-0.3c-0.5-0.2-0.8-0.5-1.1-0.9c-0.3-0.4-0.4-0.9-0.4-1.5c0-0.5,0.1-0.9,0.3-1.3
		c0.2-0.4,0.4-0.6,0.8-0.9s0.7-0.4,1.1-0.5c0.4-0.1,0.9-0.2,1.3-0.2c0.5,0,1-0.1,1.3-0.1c0.3-0.1,0.6-0.1,0.7-0.2
		c0.1-0.1,0.2-0.2,0.2-0.4v0c0-0.2,0-0.4-0.2-0.5c-0.1-0.1-0.2-0.3-0.4-0.3c-0.2-0.1-0.4-0.1-0.7-0.1s-0.5,0-0.7,0.1
		c-0.2,0.1-0.4,0.2-0.5,0.3c-0.1,0.1-0.2,0.3-0.3,0.5l-2.7-0.3c0.1-0.6,0.3-1,0.7-1.5c0.4-0.4,0.8-0.7,1.4-1
		c0.6-0.2,1.3-0.3,2.1-0.3c0.6,0,1.1,0.1,1.6,0.2c0.5,0.1,0.9,0.3,1.3,0.6c0.4,0.3,0.7,0.6,0.9,1c0.2,0.4,0.3,0.8,0.3,1.3v6.3h-2.8
		v-1.3h-0.1c-0.2,0.3-0.4,0.6-0.6,0.8c-0.3,0.2-0.6,0.4-0.9,0.5C70.3,21.6,69.9,21.6,69.5,21.6z M70.4,19.7c0.3,0,0.6-0.1,0.9-0.2
		c0.3-0.1,0.5-0.3,0.6-0.5c0.2-0.2,0.2-0.5,0.2-0.8v-0.9c-0.1,0-0.2,0.1-0.3,0.1c-0.1,0-0.3,0.1-0.4,0.1c-0.1,0-0.3,0.1-0.4,0.1
		c-0.2,0-0.3,0-0.4,0.1c-0.3,0-0.5,0.1-0.7,0.2s-0.4,0.2-0.5,0.4c-0.1,0.1-0.2,0.3-0.2,0.5c0,0.2,0.1,0.4,0.2,0.5
		c0.1,0.1,0.2,0.2,0.4,0.3C69.9,19.7,70.1,19.7,70.4,19.7z"/>
	<path class="st0" d="M76.9,21.5v-9.2h2.7l0.1,2.3h-0.2c0.1-0.6,0.4-1.1,0.6-1.4c0.3-0.4,0.6-0.6,1-0.8c0.4-0.2,0.8-0.3,1.2-0.3
		c0.7,0,1.2,0.2,1.6,0.6c0.4,0.4,0.7,1.1,0.9,2h-0.3c0.1-0.6,0.4-1.1,0.7-1.5c0.3-0.4,0.7-0.7,1.1-0.9s0.9-0.3,1.4-0.3
		c0.6,0,1.1,0.1,1.5,0.4c0.4,0.3,0.8,0.6,1.1,1.1c0.3,0.5,0.4,1,0.4,1.7v6.2h-2.9v-5.6c0-0.5-0.1-0.8-0.4-1.1
		c-0.2-0.2-0.6-0.4-0.9-0.4c-0.3,0-0.5,0.1-0.7,0.2c-0.2,0.1-0.4,0.3-0.5,0.5c-0.1,0.2-0.2,0.5-0.2,0.8v5.5h-2.8v-5.6
		c0-0.4-0.1-0.8-0.4-1c-0.2-0.3-0.6-0.4-0.9-0.4c-0.3,0-0.5,0.1-0.7,0.2s-0.4,0.3-0.5,0.5s-0.2,0.5-0.2,0.8v5.5H76.9z"/>
	<path class="st0" d="M95.3,21.6c-0.6,0-1.1-0.1-1.6-0.3c-0.5-0.2-0.8-0.5-1.1-0.9c-0.3-0.4-0.4-0.9-0.4-1.5c0-0.5,0.1-0.9,0.3-1.3
		c0.2-0.4,0.4-0.6,0.8-0.9s0.7-0.4,1.1-0.5c0.4-0.1,0.9-0.2,1.3-0.2c0.5,0,1-0.1,1.3-0.1c0.3-0.1,0.6-0.1,0.7-0.2
		c0.1-0.1,0.2-0.2,0.2-0.4v0c0-0.2,0-0.4-0.2-0.5c-0.1-0.1-0.2-0.3-0.4-0.3c-0.2-0.1-0.4-0.1-0.7-0.1s-0.5,0-0.7,0.1
		c-0.2,0.1-0.4,0.2-0.5,0.3c-0.1,0.1-0.2,0.3-0.3,0.5l-2.7-0.3c0.1-0.6,0.3-1,0.7-1.5c0.4-0.4,0.8-0.7,1.4-1
		c0.6-0.2,1.3-0.3,2.1-0.3c0.6,0,1.1,0.1,1.6,0.2c0.5,0.1,0.9,0.3,1.3,0.6c0.4,0.3,0.7,0.6,0.9,1c0.2,0.4,0.3,0.8,0.3,1.3v6.3H98
		v-1.3H98c-0.2,0.3-0.4,0.6-0.6,0.8c-0.3,0.2-0.6,0.4-0.9,0.5C96.1,21.6,95.7,21.6,95.3,21.6z M96.2,19.7c0.3,0,0.6-0.1,0.9-0.2
		c0.3-0.1,0.5-0.3,0.6-0.5c0.2-0.2,0.2-0.5,0.2-0.8v-0.9c-0.1,0-0.2,0.1-0.3,0.1c-0.1,0-0.3,0.1-0.4,0.1c-0.1,0-0.3,0.1-0.4,0.1
		c-0.2,0-0.3,0-0.4,0.1c-0.3,0-0.5,0.1-0.7,0.2s-0.4,0.2-0.5,0.4C95,18.4,95,18.6,95,18.8c0,0.2,0.1,0.4,0.2,0.5
		c0.1,0.1,0.2,0.2,0.4,0.3C95.7,19.7,95.9,19.7,96.2,19.7z"/>
	<path class="st0" d="M106,21.6c-0.7,0-1.3-0.2-1.9-0.5c-0.6-0.4-1-0.9-1.4-1.6c-0.3-0.7-0.5-1.6-0.5-2.6c0-1.1,0.2-1.9,0.5-2.6
		c0.3-0.7,0.8-1.2,1.4-1.6c0.6-0.4,1.2-0.5,1.9-0.5c0.5,0,0.9,0.1,1.2,0.2c0.3,0.2,0.6,0.4,0.9,0.6c0.2,0.3,0.4,0.5,0.5,0.8h0.1V9
		h2.9v12.5h-2.9V20h-0.1c-0.1,0.3-0.3,0.6-0.5,0.8c-0.2,0.2-0.5,0.4-0.9,0.6C106.9,21.5,106.5,21.6,106,21.6z M107,19.3
		c0.4,0,0.7-0.1,0.9-0.3c0.3-0.2,0.5-0.5,0.6-0.9c0.1-0.4,0.2-0.8,0.2-1.3c0-0.5-0.1-0.9-0.2-1.3c-0.1-0.4-0.3-0.7-0.6-0.9
		c-0.3-0.2-0.6-0.3-0.9-0.3c-0.4,0-0.7,0.1-1,0.3c-0.3,0.2-0.5,0.5-0.6,0.9s-0.2,0.8-0.2,1.3s0.1,0.9,0.2,1.3
		c0.1,0.4,0.3,0.7,0.6,0.9C106.3,19.2,106.6,19.3,107,19.3z"/>
	<path class="st0" d="M117.5,21.5V17l-4.6-8h3.5l2,3.8c0.2,0.4,0.4,0.7,0.5,1.1c0.2,0.4,0.3,0.8,0.5,1.2h-0.5
		c0.2-0.5,0.3-0.9,0.4-1.2s0.3-0.7,0.5-1.1l1.9-3.8h3.4l-4.5,8v4.5H117.5z"/>
	<path class="st0" d="M126.8,21.6c-0.4,0-0.8-0.2-1.1-0.5c-0.3-0.3-0.5-0.7-0.5-1.1s0.2-0.8,0.5-1.1c0.3-0.3,0.7-0.5,1.1-0.5
		s0.8,0.2,1.1,0.5c0.3,0.3,0.5,0.7,0.5,1.1s-0.2,0.8-0.5,1.1C127.6,21.5,127.2,21.6,126.8,21.6z"/>
</g>
</svg>
