<?xml version="1.0" encoding="UTF-8"?>
<svg id="Layer_1" data-name="Layer 1" xmlns="http://www.w3.org/2000/svg" xmlns:xlink="http://www.w3.org/1999/xlink" viewBox="0 0 500 500">
  <defs>
    <style>
      .cls-1 {
        fill: #252f3e;
      }

      .cls-2 {
        fill: url(#radial-gradient);
      }

      .cls-3 {
        clip-path: url(#clippath);
      }

      .cls-4 {
        fill: none;
      }

      .cls-5 {
        fill: #f90;
      }
    </style>
    <clipPath id="clippath">
      <path class="cls-4" d="m954.18,215.21h-180.35v74.1h103.06c-4.53,23.83-18.1,44-38.47,57.57-17.06,11.48-38.82,18.44-64.58,18.44-49.79,0-92.09-33.57-107.23-78.79h-.23l.23-.17c-3.83-11.48-6.09-23.65-6.09-36.35s2.26-24.87,6.09-36.35c15.15-45.22,57.45-78.79,107.23-78.79,28.2,0,53.27,9.74,73.29,28.52l54.84-54.79c-33.25-30.96-76.42-49.92-128.12-49.92-74.85,0-139.44,42.96-170.95,105.58-13.06,25.74-20.54,54.79-20.54,85.75s7.49,60.01,20.54,85.75v.17c31.51,62.44,96.09,105.4,170.95,105.4,51.7,0,95.05-17.05,126.73-46.27,36.21-33.39,57.1-82.45,57.1-140.71,0-13.57-1.22-26.61-3.48-39.13Z"/>
    </clipPath>
    <radialGradient id="radial-gradient" cx="-953.4" cy="489.06" fx="-953.4" fy="489.06" r="7.08" gradientTransform="translate(18813.67 12858.66) scale(19.07 -25.73)" gradientUnits="userSpaceOnUse">
      <stop offset=".37" stop-color="#ffcf09"/>
      <stop offset=".72" stop-color="#ffcf09" stop-opacity=".7"/>
      <stop offset="1" stop-color="#ffcf09" stop-opacity="0"/>
    </radialGradient>
  </defs>
  <g>
    <path class="cls-1" d="m156.06,214.78c0,5.3.57,9.59,1.58,12.74,1.15,3.15,2.58,6.59,4.58,10.31.72,1.15,1,2.29,1,3.29,0,1.43-.86,2.86-2.72,4.3l-9.02,6.01c-1.29.86-2.58,1.29-3.72,1.29-1.43,0-2.86-.72-4.3-2-2-2.15-3.72-4.44-5.15-6.73-1.43-2.43-2.86-5.15-4.44-8.45-11.17,13.17-25.2,19.76-42.1,19.76-12.03,0-21.62-3.44-28.64-10.31-7.02-6.87-10.6-16.04-10.6-27.49,0-12.17,4.3-22.05,13.03-29.5,8.73-7.45,20.33-11.17,35.08-11.17,4.87,0,9.88.43,15.18,1.15,5.3.72,10.74,1.86,16.47,3.15v-10.45c0-10.88-2.29-18.47-6.73-22.91-4.58-4.44-12.31-6.59-23.34-6.59-5.01,0-10.17.57-15.46,1.86-5.3,1.29-10.45,2.86-15.46,4.87-2.29,1-4.01,1.58-5.01,1.86s-1.72.43-2.29.43c-2,0-3.01-1.43-3.01-4.44v-7.02c0-2.29.29-4.01,1-5.01s2-2,4.01-3.01c5.01-2.58,11.03-4.73,18.04-6.44,7.02-1.86,14.46-2.72,22.34-2.72,17.04,0,29.5,3.87,37.52,11.6,7.88,7.73,11.88,19.47,11.88,35.22v46.39h.29Zm-58.13,21.76c4.73,0,9.59-.86,14.75-2.58,5.15-1.72,9.74-4.87,13.6-9.16,2.29-2.72,4.01-5.73,4.87-9.16.86-3.44,1.43-7.59,1.43-12.46v-6.01c-4.15-1-8.59-1.86-13.17-2.43-4.58-.57-9.02-.86-13.46-.86-9.59,0-16.61,1.86-21.34,5.73-4.73,3.87-7.02,9.31-7.02,16.47,0,6.73,1.72,11.74,5.3,15.18,3.44,3.58,8.45,5.3,15.03,5.3Zm114.98,15.46c-2.58,0-4.3-.43-5.44-1.43-1.15-.86-2.15-2.86-3.01-5.58l-33.65-110.68c-.86-2.86-1.29-4.73-1.29-5.73,0-2.29,1.15-3.58,3.44-3.58h14.03c2.72,0,4.58.43,5.58,1.43,1.15.86,2,2.86,2.86,5.58l24.06,94.79,22.34-94.79c.72-2.86,1.58-4.73,2.72-5.58s3.15-1.43,5.73-1.43h11.46c2.72,0,4.58.43,5.73,1.43,1.15.86,2.15,2.86,2.72,5.58l22.62,95.94,24.77-95.94c.86-2.86,1.86-4.73,2.86-5.58,1.15-.86,3.01-1.43,5.58-1.43h13.32c2.29,0,3.58,1.15,3.58,3.58,0,.72-.14,1.43-.29,2.29s-.43,2-1,3.58l-34.51,110.68c-.86,2.86-1.86,4.73-3.01,5.58s-3.01,1.43-5.44,1.43h-12.31c-2.72,0-4.58-.43-5.73-1.43s-2.15-2.86-2.72-5.73l-22.19-92.36-22.05,92.21c-.72,2.86-1.58,4.73-2.72,5.73s-3.15,1.43-5.73,1.43h-12.31Zm184,3.87c-7.45,0-14.89-.86-22.05-2.58-7.16-1.72-12.74-3.58-16.47-5.73-2.29-1.29-3.87-2.72-4.44-4.01-.57-1.29-.86-2.72-.86-4.01v-7.3c0-3.01,1.15-4.44,3.29-4.44.86,0,1.72.14,2.58.43.86.29,2.15.86,3.58,1.43,4.87,2.15,10.17,3.87,15.75,5.01,5.73,1.15,11.31,1.72,17.04,1.72,9.02,0,16.04-1.58,20.91-4.73,4.87-3.15,7.45-7.73,7.45-13.6,0-4.01-1.29-7.3-3.87-10.02-2.58-2.72-7.45-5.15-14.46-7.45l-20.76-6.44c-10.45-3.29-18.18-8.16-22.91-14.61-4.73-6.3-7.16-13.32-7.16-20.76,0-6.01,1.29-11.31,3.87-15.89,2.58-4.58,6.01-8.59,10.31-11.74,4.3-3.29,9.16-5.73,14.89-7.45s11.74-2.43,18.04-2.43c3.15,0,6.44.14,9.59.57,3.29.43,6.3,1,9.31,1.58,2.86.72,5.58,1.43,8.16,2.29s4.58,1.72,6.01,2.58c2,1.15,3.44,2.29,4.3,3.58.86,1.15,1.29,2.72,1.29,4.73v6.73c0,3.01-1.15,4.58-3.29,4.58-1.15,0-3.01-.57-5.44-1.72-8.16-3.72-17.33-5.58-27.49-5.58-8.16,0-14.61,1.29-19.04,4.01s-6.73,6.87-6.73,12.74c0,4.01,1.43,7.45,4.3,10.17,2.86,2.72,8.16,5.44,15.75,7.88l20.33,6.44c10.31,3.29,17.76,7.88,22.19,13.75,4.44,5.87,6.59,12.6,6.59,20.05,0,6.16-1.29,11.74-3.72,16.61-2.58,4.87-6.01,9.16-10.45,12.6-4.44,3.58-9.74,6.16-15.89,8.02-6.44,2-13.17,3.01-20.48,3.01Z"/>
    <path class="cls-5" d="m423.97,325.46c-47.11,34.79-115.55,53.27-174.4,53.27-82.48,0-156.79-30.5-212.92-81.19-4.44-4.01-.43-9.45,4.87-6.3,60.71,35.22,135.6,56.56,213.06,56.56,52.26,0,109.68-10.88,162.52-33.22,7.88-3.58,14.61,5.15,6.87,10.88Zm19.62-22.34c-6.01-7.73-39.81-3.72-55.13-1.86-4.58.57-5.3-3.44-1.15-6.44,26.92-18.9,71.16-13.46,76.32-7.16,5.15,6.44-1.43,50.69-26.63,71.88-3.87,3.29-7.59,1.58-5.87-2.72,5.73-14.18,18.47-46.11,12.46-53.7Z"/>
  </g>
  <g class="cls-3">
    <g id="g513">
      <path id="ellipse507" class="cls-2" d="m763.41,277.35c0,100.56-60.44,182.09-135,182.09h0c-74.56,0-135-81.52-135-182.09h0c0-100.56,60.44-182.09,135-182.09s135,81.52,135,182.09h0Z"/>
    </g>
  </g>
</svg>