<?xml version="1.0" encoding="utf-8"?>
<!-- Generator: Adobe Illustrator 27.3.1, SVG Export Plug-In . SVG Version: 6.00 Build 0)  -->
<svg version="1.1" id="Layer_1" xmlns="http://www.w3.org/2000/svg" xmlns:xlink="http://www.w3.org/1999/xlink" x="0px" y="0px"
	 viewBox="0 0 500 500" style="enable-background:new 0 0 500 500;" xml:space="preserve">
<style type="text/css">
	.st0{fill-rule:evenodd;clip-rule:evenodd;fill:#EE3E28;}
</style>
<path class="st0" d="M334.6,130.5H165.4l0,0c-66,0-109.4,53.5-109.4,119.5c0,66,43.4,119.5,109.4,119.5l0,0h169.3l0,0
	c66,0,109.4-53.5,109.4-119.5C444.1,184,400.6,130.5,334.6,130.5L334.6,130.5L334.6,130.5L334.6,130.5z M334.6,330.6H165.4l0,0
	c-44.5,0-70.5-36.1-70.5-80.6c0-44.5,26-80.6,70.5-80.6l0,0h169.3l0,0c44.5,0,70.5,36.1,70.5,80.6
	C405.1,294.5,379.1,330.6,334.6,330.6L334.6,330.6L334.6,330.6L334.6,330.6z"/>
</svg>
